<svg id="Layer_2" data-name="Layer 2" xmlns="http://www.w3.org/2000/svg" viewBox="0 0 3620.55 632.01"><defs><style>.cls-1{fill:#6c4c90;}.cls-2{fill:#f7b4f9;}.cls-3{fill:#fff;}</style></defs><path class="cls-1" d="M98.64,259.47q24.61,18.3,77.09,38.94,65.16,27.06,97,52.46t31.79,79.47q0,60.44-50.07,93.79T132.81,557.5q-63.59,0-125.57-27l19.08-35q54,22.28,108.08,22.25,52.46,0,85.84-22.25t33.38-63.58q0-36.56-26.23-56.43t-81.86-42.12q-60.42-23.85-92.19-49.28T21.55,209.4q0-57.22,46.1-89T178.91,88.6a252.72,252.72,0,0,1,114.44,27L274.28,149q-39.75-22.25-92.19-22.25-46.12,0-77.09,21.46t-31,59.6Q74,241.2,98.64,259.47Z" transform="translate(-7.24 -5.46)"/><path class="cls-1" d="M621.42,254.71Q658,287.31,658,336.56l1.59,219.36H610.29V338.15q0-28.61-22.25-50.07t-55.63-21.45H499q-31.81,0-54.84,21.45t-23.05,51.66V555.92H373.46l-1.59-438.71q0-12.7,11.12-17.48l36.56-14.31V249.14q38.15-27,79.48-27h33.38Q584.87,222.12,621.42,254.71Z" transform="translate(-7.24 -5.46)"/><path class="cls-1" d="M1002,530.48q-49.29,27.06-122.39,27-81.07,0-129.55-43.7t-48.48-128q0-81.07,44.5-125.57t116-44.51q73.09,0,112.85,40.53t38.15,120L747.62,406.5Q754,462.15,789,490.74t92.2,28.61q65.15,0,101.72-20.66Zm-221.74-244q-31,26.22-32.59,77.09l217.77-22.26q-1.6-81.06-104.91-81.06Q811.21,260.27,780.21,286.5Z" transform="translate(-7.24 -5.46)"/><path class="cls-1" d="M1113.85,118q31.77-31,89-31h12.71v35h-11.12q-30.23,0-51.66,19.07t-21.46,52.46v69.94h84.24v35h-84.24V555.92h-49.27V199.86Q1082.06,149,1113.85,118Z" transform="translate(-7.24 -5.46)"/><path class="cls-1" d="M1499.14,528.89q-54.06,27.06-108.09,27-52.46,0-87.42-27.82t-35-78.68q0-101.7,143-101.73,33.38,0,89,7.95v-27q0-31.78-27-47.69T1400.59,265q-44.52,0-103.32,15.89V244.37q49.24-15.87,108.08-15.89,85.85,0,116,35,25.41,23.83,25.43,68.34V554.33H1503.9Zm1.59-135.1a463.33,463.33,0,0,0-87.43-8q-98.57,0-98.55,63.58,0,33.39,23.85,50.07t60.4,16.69q55.62,0,101.73-31.79Z" transform="translate(-7.24 -5.46)"/><path class="cls-1" d="M2196.05,555.92h-55.62l-62-155.78H1878.15l-60.4,155.78h-54l197.1-470.5H1999ZM2062.54,360.4l-84.25-220.94L1894.05,360.4Z" transform="translate(-7.24 -5.46)"/><path class="cls-1" d="M2312.72,298.41V466.9q0,20.69,16.69,35.77t43.72,15.1c8.47,0,13.75-.52,15.89-1.59l3.17,36.56a110.1,110.1,0,0,1-27,3.18q-49.29,0-74.71-26.23t-25.43-66V128.34a13.56,13.56,0,0,1,3.18-8.74,19.64,19.64,0,0,1,6.36-5.56l38.14-17.49v166.9h85.83v35Z" transform="translate(-7.24 -5.46)"/><path class="cls-1" d="M2723.45,530.48q-49.29,27.06-122.39,27-81.07,0-129.54-43.7t-48.48-128q0-81.07,44.5-125.57t116-44.51q73.08,0,112.85,40.53t38.15,120l-265.45,30.2q6.33,55.65,41.32,84.24t92.2,28.61q65.14,0,101.73-20.66Zm-221.73-244q-31,26.22-32.59,77.09l217.76-22.26q-1.6-81.06-104.9-81.06Q2532.7,260.27,2501.72,286.5Z" transform="translate(-7.24 -5.46)"/><path class="cls-1" d="M2835.35,118q31.77-31,89-31h12.72v35H2926q-30.21,0-51.66,19.07t-21.45,52.46v69.94h84.24v35h-84.24V555.92h-49.28V199.86Q2803.56,149,2835.35,118Z" transform="translate(-7.24 -5.46)"/><path class="cls-2" d="M1633.09,280.51c8.73-10.52,26.86-35.72,25.55-68.83-1.36-34.43-23-58-41.77-78.63a204.72,204.72,0,0,0-55.1-42.8c-5.41,6-36.35,41.5-31.25,91.7,4.56,44.85,36.08,83.94,80.89,100.71-2.37-11-4.49-22.74-6.21-35.23a471.72,471.72,0,0,1-4.3-55.07A84.6,84.6,0,0,1,1627.3,224C1639.42,249.29,1634.86,273,1633.09,280.51Z" transform="translate(-7.24 -5.46)"/><circle class="cls-1" cx="3304.54" cy="316.01" r="316.01"/><path class="cls-3" d="M3429.12,356c0,3.14-.26,18.67-12.34,29.84a37.85,37.85,0,0,1-15.09,8.45c6.63,11.8,14.84,30.69,14.78,54.14-.12,53.15-42.69,115.72-100.13,116.63-47.45.76-79.41-42.93-82.52-47.31-15.2-21.4-18.71-43.26-19.81-50.62-3.22-21.57.2-39,4-54.26,16.82-68.56,36.92-82.05,48.86-137.19,5.55-25.65,10.23-48.65,1.65-75.93-10.71-34-35.68-54.51-49-63.82a123.09,123.09,0,0,1,35.21,29.35c41.13,50.42,27.34,120.43,24,135.88-3.12,14.37-9,29.33-20.64,59.26-14.5,37.15-23.71,53-23.39,80,.1,8.53.41,22.34,7.72,38,2.48,5.32,12.51,25.27,35.11,37.61,24.27,13.26,57.94,14.93,85.59-3.09,27.9-18.18,41-50.73,37-80.85-4.11-31.16-25.13-49.69-30.66-54.28a68.52,68.52,0,0,1-1.84-10.24c-.48-4.78-.73-7.51.39-10.79a17.06,17.06,0,0,1,3.77-6.16c1.05,1.19,11.8,13,25.79,10.69,8.45-1.39,13.95-6.92,16.9-10.86,6.33-8.46,4.68-18.85,11.2-29.57,1.3,4.34.82,16.51,4,17.77a8.7,8.7,0,0,0,5.25.66c6.88-1.45,10.64-12.56,11.44-20.06.47-4.52-.24-6.69,1.35-10.9a22.89,22.89,0,0,1,5.36-8.14,109.65,109.65,0,0,1,1.45,29.73c-1.11,12.44-2.34,26.18-10.48,29.39C3439,361.32,3433.11,358.59,3429.12,356Z" transform="translate(-7.24 -5.46)"/><path class="cls-3" d="M3400.24,240.78c2.8-3.39,8.84-10.71,15.14-9.59,5.38,1,8.71,7.46,9.81,11.08,3.21,10.52,5.36,23.93-.18,34.09q-4.66-19.49-11.84-20.45-13.56-1.83-36,62.51C3378.82,302,3384.15,260.28,3400.24,240.78Z" transform="translate(-7.24 -5.46)"/><path class="cls-2" d="M3264.26,170.45c1.22-10.34,2.36-34-12.2-54.59-15.15-21.45-38.79-27.55-59.3-32.95a156.12,156.12,0,0,0-53-4.52c-1,6.08-6,41.59,18,71.58,21.5,26.78,57.86,38.7,93.45,30.84-6.06-6-12.29-12.67-18.56-19.94a359.42,359.42,0,0,1-25.59-33.42,64.32,64.32,0,0,1,30,9.26C3255.36,147.87,3262.27,164.91,3264.26,170.45Z" transform="translate(-7.24 -5.46)"/><path class="cls-2" d="M3278.44,200.37c-1.47-5.79-7.66-32.86,8-59.32C3308.29,104.33,3352,103,3354.6,103c1.91,7.87,7,33.11-5.86,60.05-18.16,38-57,47.79-62.24,49a71.53,71.53,0,0,1,24.91-53.89c-4.69,1.81-18.74,7.93-27.12,23.19A49.88,49.88,0,0,0,3278.44,200.37Z" transform="translate(-7.24 -5.46)"/><path class="cls-2" d="M3256.92,235.55c-1.83-5.19-10-26.5-33-38.51-29.91-15.64-59.36-2.15-62.71-.55,1.3,5.21,8.27,30.83,34.11,46.77,27.42,16.91,55.23,10.05,60,8.8a63.36,63.36,0,0,0-11-16,64.59,64.59,0,0,0-27.51-17,59.47,59.47,0,0,1,25.31,6A58.86,58.86,0,0,1,3256.92,235.55Z" transform="translate(-7.24 -5.46)"/><path class="cls-2" d="M3296.42,252.08c.33-1.34,7.4-28.31,33.24-36.09,18.86-5.68,34.69,2.79,37.74,4.5-.18,2.19-3.17,33.17-30.59,47.75-21.2,11.27-42,4.76-45.81,3.49a89.5,89.5,0,0,1,39.9-30.32,104.08,104.08,0,0,0-34.48,10.67Z" transform="translate(-7.24 -5.46)"/></svg>