<svg id="Layer_1" data-name="Layer 1" xmlns="http://www.w3.org/2000/svg" viewBox="0 0 1080 1080"><defs><style>.cls-1{fill:#fff;}.cls-2{fill:#377f00;}.cls-3{fill:#6c4c90;}.cls-4{fill:#f7b4f9;}</style></defs><circle class="cls-1" cx="540" cy="540" r="540"/><path class="cls-2" d="M480.67,755.76" transform="translate(0 0)"/><path class="cls-3" d="M772.28,600.68c0,5.52-.47,32.77-21.67,52.37a66.22,66.22,0,0,1-26.49,14.83c11.64,20.71,26,53.87,26,95-.22,93.29-74.93,203.11-175.74,204.71-83.28,1.32-139.38-75.35-144.84-83-26.68-37.56-32.83-75.92-34.76-88.83-5.66-37.87.35-68.42,6.94-95.25,29.53-120.32,64.8-144,85.75-240.78,9.75-45,18-85.38,2.9-133.26-18.78-59.69-62.62-95.68-85.94-112a216.1,216.1,0,0,1,61.8,51.49c72.19,88.5,48,211.38,42.07,238.5-5.49,25.22-15.74,51.48-36.24,104-25.45,65.2-41.6,93-41,140.36.17,15,.71,39.21,13.55,66.7,4.35,9.32,22,44.35,61.61,66,42.61,23.26,101.7,26.19,150.23-5.44,49-31.9,71.9-89,64.92-141.9-7.22-54.68-44.11-87.21-53.81-95.25a120.43,120.43,0,0,1-3.23-18c-.85-8.38-1.28-13.19.69-18.94a29.93,29.93,0,0,1,6.61-10.8c1.84,2.08,20.7,22.8,45.26,18.76,14.83-2.45,24.5-12.15,29.67-19.06,11.11-14.86,8.21-33.09,19.66-51.91,2.27,7.61,1.44,29,7,31.19a15.26,15.26,0,0,0,9.21,1.16c12.07-2.55,18.68-22.05,20.07-35.22.84-7.92-.42-11.72,2.37-19.12a40.45,40.45,0,0,1,9.41-14.29,192.08,192.08,0,0,1,2.54,52.19c-1.94,21.82-4.1,45.93-18.38,51.58C789.54,610,779.27,605.16,772.28,600.68Z" transform="translate(0 0)"/><path class="cls-3" d="M721.58,398.39c4.92-6,15.51-18.8,26.57-16.82,9.44,1.68,15.29,13.07,17.22,19.43,5.63,18.46,9.41,42-.32,59.83q-8.19-34.18-20.78-35.88Q720.48,421.74,681,534.66C684,505.83,693.34,432.62,721.58,398.39Z" transform="translate(0 0)"/><path class="cls-4" d="M482.92,275c2.13-18.16,4.14-59.62-21.42-95.82-26.58-37.65-68.08-48.36-104.07-57.83a273.76,273.76,0,0,0-93-7.93c-1.7,10.67-10.59,73,31.66,125.63,37.74,47,101.55,67.92,164,54.13-10.65-10.59-21.58-22.24-32.59-35a631.48,631.48,0,0,1-44.9-58.66,113,113,0,0,1,52.62,16.25C467.31,235.32,479.43,265.23,482.92,275Z" transform="translate(0 0)"/><path class="cls-4" d="M507.8,327.46c-2.57-10.15-13.44-57.67,14.14-104.11,38.26-64.44,114.89-66.78,119.53-66.84,3.36,13.81,12.28,58.12-10.28,105.4-31.87,66.78-100,83.87-109.25,86a125.7,125.7,0,0,1,43.73-94.59c-8.23,3.18-32.88,13.92-47.59,40.69A87.42,87.42,0,0,0,507.8,327.46Z" transform="translate(0 0)"/><path class="cls-4" d="M470,389.22c-3.22-9.11-17.62-46.52-57.93-67.59-52.51-27.45-104.19-3.79-110.08-1,2.28,9.14,14.53,54.11,59.87,82.08,48.12,29.69,96.93,17.64,105.25,15.45a110.93,110.93,0,0,0-19.32-28,113.5,113.5,0,0,0-48.28-29.93,103.08,103.08,0,0,1,70.49,29Z" transform="translate(0 0)"/><path class="cls-4" d="M539.37,418.22c.57-2.34,13-49.68,58.34-63.34,33.1-10,60.87,4.89,66.22,7.9-.3,3.84-5.55,58.22-53.67,83.8-37.22,19.79-73.74,8.35-80.42,6.13a157.17,157.17,0,0,1,70-53.21,182.49,182.49,0,0,0-60.52,18.72Z" transform="translate(0 0)"/></svg>